<mxfile host="app.diagrams.net" modified="2024-04-01T23:02:27.719Z" agent="Mozilla/5.0 (Windows NT 10.0; Win64; x64) AppleWebKit/537.36 (KHTML, like Gecko) Chrome/123.0.0.0 Safari/537.36" version="24.2.1" etag="luwXRpYgtx5K8ccfhl6C" type="github">
  <diagram name="PÃ¡gina-1" id="sg3c1MRSDcVtMZwVH0K7">
    <mxGraphModel>
      <root>
        <mxCell id="0" />
        <mxCell id="1" parent="0" />
      </root>
    </mxGraphModel>
  </diagram>
</mxfile>
